<?xml version="1.0" encoding="UTF-8" standalone="no"?>
<!-- Created with Inkscape (http://www.inkscape.org/) -->

<svg
   width="300mm"
   height="300mm"
   viewBox="0 0 300 300"
   version="1.1"
   id="svg5"
   xml:space="preserve"
   inkscape:version="1.2.2 (732a01da63, 2022-12-09)"
   sodipodi:docname="GM Ink.svg"
   inkscape:export-filename="GM.svg"
   inkscape:export-xdpi="97.1688"
   inkscape:export-ydpi="97.1688"
   xmlns:inkscape="http://www.inkscape.org/namespaces/inkscape"
   xmlns:sodipodi="http://sodipodi.sourceforge.net/DTD/sodipodi-0.dtd"
   xmlns="http://www.w3.org/2000/svg"
   xmlns:svg="http://www.w3.org/2000/svg"><sodipodi:namedview
     id="namedview7"
     pagecolor="#505050"
     bordercolor="#eeeeee"
     borderopacity="1"
     inkscape:showpageshadow="0"
     inkscape:pageopacity="0"
     inkscape:pagecheckerboard="0"
     inkscape:deskcolor="#505050"
     inkscape:document-units="mm"
     showgrid="false"
     showguides="true"
     inkscape:zoom="0.52216152"
     inkscape:cx="523.78429"
     inkscape:cy="611.87963"
     inkscape:window-width="1920"
     inkscape:window-height="991"
     inkscape:window-x="2391"
     inkscape:window-y="467"
     inkscape:window-maximized="1"
     inkscape:current-layer="layer1" /><defs
     id="defs2"><rect
       x="211"
       y="796"
       width="787"
       height="101"
       id="rect1163" /></defs><g
     inkscape:label="Camada 1"
     inkscape:groupmode="layer"
     id="layer1"><g
       aria-label="Consultoria de RH"
       transform="matrix(0.26458333,0,0,0.26458333,1.0583333,-14.022917)"
       id="text1161"
       style="font-size:82.6667px;white-space:pre;shape-inside:url(#rect1163);fill:#ffffff;stroke-width:25.3228;stroke-linecap:round;paint-order:markers stroke fill"><path
         id="path307"
         style="font-family:'FONTSPRING DEMO - Balgin Extra Light';-inkscape-font-specification:'FONTSPRING DEMO - Balgin Extra Light, ';fill:#0f03a1;fill-opacity:1;stroke-width:3.77952761;stroke:none;stroke-opacity:1;stroke-dasharray:none"
         d="M 445.93555 746.21095 L 445.93555 815.13478 L 449.85547 815.13478 L 449.85547 746.21095 L 445.93555 746.21095 z M 749.89063 746.21095 L 749.89063 778.94728 L 749.25392 778.94728 C 745.06145 771.51517 737.03985 766.91407 727.65235 766.91407 C 713.79897 766.91407 702.86329 777.00146 702.86329 791.51173 C 702.86329 806.11048 713.79897 816.19728 727.65235 816.19728 C 736.9487 816.19728 744.97031 811.59616 749.25392 804.16407 L 749.89063 804.16407 L 749.89063 815.22267 L 753.81056 815.22267 L 753.81056 746.21095 L 749.89063 746.21095 z M 602.2422 749.8379 C 600.69281 749.8379 599.32618 751.07793 599.32618 752.58204 C 599.32618 754.17463 600.69281 755.41212 602.2422 755.41212 C 603.79158 755.41212 605.06837 754.17463 605.06837 752.58204 C 605.06837 751.07793 603.79158 749.8379 602.2422 749.8379 z M 195.11719 752.22657 C 174.88395 752.22657 160.39258 766.03054 160.39258 784.69923 C 160.39258 803.54488 174.79282 816.19728 195.11719 816.19728 C 203.59328 816.19728 210.97559 813.80688 216.8086 809.64845 L 216.8086 805.13673 C 211.43129 809.5606 203.59328 812.30275 195.11719 812.30275 C 177.34476 812.30275 164.58399 801.33294 164.58399 784.69923 C 164.58399 768.41942 177.25296 756.1211 195.02539 756.1211 C 201.95208 756.1211 207.87594 757.88963 212.88867 760.98634 L 213.43555 756.38478 C 208.24053 753.73046 201.77046 752.22657 195.11719 752.22657 z M 852.78907 753.20118 L 852.78907 815.13478 L 856.98243 815.13478 L 856.98243 788.6797 L 879.584 788.59181 L 896.9004 815.13478 L 901.54884 815.13478 L 883.959 788.32618 C 893.98448 786.82206 901.00196 779.92097 901.00196 770.63087 C 901.00196 760.10208 892.16209 753.20118 879.94923 753.20118 L 852.78907 753.20118 z M 913.21486 753.20118 L 913.21486 815.13478 L 917.40821 815.13478 L 917.40821 786.64454 L 962.33986 786.64454 L 962.33986 815.13478 L 966.53322 815.13478 L 966.53322 753.20118 L 962.33986 753.20118 L 962.33986 782.66407 L 917.40821 782.66407 L 917.40821 753.20118 L 913.21486 753.20118 z M 856.98243 757.09376 L 879.40235 757.09376 C 889.42782 757.09376 896.71876 762.49057 896.71876 770.98439 C 896.71876 779.47821 889.42782 785.22853 879.40235 785.22853 L 856.98243 785.22853 L 856.98243 757.09376 z M 472.2754 757.97853 L 457.87501 769.65821 L 457.87501 771.07228 L 470.17969 771.07228 L 470.17969 800.09376 C 470.17969 810.53407 475.10084 816.19728 485.3086 816.19728 C 491.41502 816.19728 495.33467 814.33908 495.97266 814.16212 L 495.15235 810.71095 C 494.69664 810.97638 491.14162 812.56837 485.58204 812.56837 C 477.56166 812.56837 474.09962 808.40964 474.09962 799.6504 L 474.09962 771.3379 L 495.97266 771.3379 L 495.97266 767.88868 L 474.09962 767.88868 L 474.09962 757.97853 L 472.2754 757.97853 z M 247.61328 766.91407 C 233.48647 766.91407 222.18555 777.00146 222.18555 791.51173 C 222.18555 806.11048 233.48647 816.19728 247.61328 816.19728 C 261.74009 816.19728 273.04297 806.11048 273.04297 791.51173 C 273.04297 777.00146 261.74009 766.91407 247.61328 766.91407 z M 307.94922 766.91407 C 299.65542 766.91407 292.54603 771.33922 288.90039 778.50587 L 288.35352 778.50587 L 286.98633 767.88868 L 284.70899 767.88868 L 284.70899 815.13478 L 288.62696 815.13478 L 288.62696 789.38868 C 288.62696 778.24054 296.82934 770.54298 307.03711 770.54298 C 317.24487 770.54298 325.44922 778.24054 325.44922 789.38868 L 325.44922 815.13478 L 329.36719 815.13478 L 329.36719 789.29884 C 329.36719 776.11573 319.9798 766.91407 307.94922 766.91407 z M 358.80665 766.91407 C 348.59889 766.91407 341.76172 772.40054 341.76172 778.85939 C 341.76172 785.7606 346.13673 790.36113 357.80274 792.75001 C 368.4662 794.87347 371.47461 798.32438 371.47461 803.89845 C 371.47461 809.20708 366.64345 812.92189 358.89649 812.92189 C 351.78752 812.92189 345.59026 810.26781 341.30665 806.99415 L 339.75782 810.09181 C 344.58828 813.54242 351.42427 816.19728 359.08008 816.19728 C 369.01442 816.19728 375.39454 810.88679 375.39454 803.80861 C 375.39454 796.55347 371.11001 791.95393 359.26172 789.47657 C 348.32483 787.26464 345.68165 783.63715 345.68165 778.85939 C 345.68165 774.17009 350.87675 770.18751 358.71485 770.18751 C 364.54785 770.18751 369.01453 771.42754 372.66016 772.93165 L 372.66016 769.39259 C 368.7411 767.97696 364.45737 766.91407 358.80665 766.91407 z M 528.14454 766.91407 C 514.01773 766.91407 502.7168 777.00146 502.7168 791.51173 C 502.7168 806.11048 514.01773 816.19728 528.14454 816.19728 C 542.27134 816.19728 553.57423 806.11048 553.57423 791.51173 C 553.57423 777.00146 542.27134 766.91407 528.14454 766.91407 z M 586.65821 766.91407 C 578.09098 766.91407 572.25831 771.07202 569.3418 777.88478 L 568.79493 777.88478 L 567.51759 767.88868 L 565.24024 767.88868 L 565.24024 815.13478 L 569.15821 815.13478 L 569.15821 789.03321 C 569.52278 777.79661 575.72132 770.54298 586.65821 770.54298 C 588.75444 770.54298 589.57497 770.63128 591.30665 771.16212 L 591.85352 767.44532 C 590.12184 767.0914 589.02786 766.91407 586.65821 766.91407 z M 640.52149 766.91407 C 626.66811 766.91407 615.64063 777.00146 615.64063 791.51173 C 615.64063 806.11048 626.66811 816.19728 640.52149 816.19728 C 649.81785 816.19728 657.83945 811.59479 662.12306 804.07423 L 662.66993 804.07423 L 662.66993 815.13478 L 666.5879 815.13478 L 666.5879 767.88868 L 664.4922 767.88868 L 663.03321 779.65431 L 662.48634 779.65431 C 658.38501 771.77984 650.09127 766.91407 640.52149 766.91407 z M 790.90431 766.91407 C 776.7775 766.91407 765.47657 777.00146 765.47657 791.51173 C 765.47657 806.11048 775.95794 816.19728 791.81642 816.19728 C 800.20137 816.19728 808.22168 813.54245 813.78126 807.43751 L 811.22853 804.51759 C 806.48921 810.00318 799.28996 812.65821 791.81642 812.65821 C 778.87444 812.65821 770.21546 804.78192 769.48634 793.19142 L 816.33204 793.19142 L 816.33204 791.51173 C 816.33204 777.00146 805.12225 766.91407 790.90431 766.91407 z M 387.06055 767.88868 L 387.06055 793.72267 C 387.06055 807.5251 395.99224 816.19728 408.47852 816.19728 C 416.59004 816.19728 423.69812 811.86021 427.34376 804.959 L 427.79883 804.959 L 427.89063 815.13478 L 431.71876 815.13478 L 431.71876 767.88868 L 427.79883 767.88868 L 427.79883 793.63478 C 427.79883 804.7829 419.59644 812.56837 409.38868 812.56837 C 398.72522 812.56837 390.97852 805.31377 390.97852 793.63478 L 390.97852 767.88868 L 387.06055 767.88868 z M 600.23829 767.88868 L 600.23829 815.13478 L 604.24805 815.13478 L 604.24805 767.88868 L 600.23829 767.88868 z M 247.61328 770.45314 C 259.55271 770.45314 269.12305 779.03644 269.12305 791.51173 C 269.12305 803.98702 259.55271 812.65821 247.61328 812.65821 C 235.67385 812.65821 226.10547 803.98702 226.10547 791.51173 C 226.10547 779.03644 235.67385 770.45314 247.61328 770.45314 z M 528.14454 770.45314 C 540.08397 770.45314 549.6543 779.03644 549.6543 791.51173 C 549.6543 803.98702 540.08397 812.65821 528.14454 812.65821 C 516.2051 812.65821 506.63673 803.98702 506.63673 791.51173 C 506.63673 779.03644 516.2051 770.45314 528.14454 770.45314 z M 641.06837 770.45314 C 653.00781 770.45314 662.57813 779.03644 662.57813 791.51173 C 662.57813 803.98702 653.00781 812.65821 641.06837 812.65821 C 629.12894 812.65821 619.56055 803.98702 619.56055 791.51173 C 619.56055 779.03644 629.22008 770.45314 641.06837 770.45314 z M 728.29102 770.45314 C 740.13931 770.45314 749.70899 779.03644 749.70899 791.51173 C 749.70899 803.98702 740.13931 812.65821 728.29102 812.65821 C 716.3516 812.65821 706.78126 803.98702 706.78126 791.51173 C 706.78126 779.03644 716.3516 770.45314 728.29102 770.45314 z M 790.90431 770.45314 C 802.29689 770.45314 811.50202 778.24015 812.32228 789.7422 L 769.48634 789.7422 C 770.39775 778.24015 779.60286 770.45314 790.90431 770.45314 z " /></g><path
       id="path3433"
       style="fill:#0f03a1;fill-opacity:1;stroke:none;stroke-width:1;stroke-linecap:square;stroke-linejoin:round;stroke-opacity:1;paint-order:markers stroke fill;stroke-dasharray:none"
       d="M 94.042322 42.227913 C 42.868174 42.195421 21.521337 78.236155 21.431767 111.73685 C 21.431767 162.99881 63.662839 176.10281 94.374084 175.72571 C 134.96966 175.22724 141.14901 159.85743 141.14901 159.85743 C 141.14901 159.85743 153.00854 175.7261 183.99445 175.89314 C 215.40862 176.06249 235.02536 153.17602 236.52872 125.11329 C 238.03207 97.050583 219.69403 67.916044 181.77909 67.797929 C 143.86413 67.679814 132.42086 96.173458 132.42086 96.173458 L 90.78619 96.382231 C 74.416274 100.68351 85.524495 124.06891 85.524495 124.06891 L 108.18978 123.96453 L 107.75776 143.76642 C 107.75776 143.76642 101.59816 146.88826 90.738647 146.27479 C 80.576428 145.70071 59.74606 139.01922 59.298189 111.43041 C 58.850319 83.841606 76.512904 72.079306 95.324414 71.635937 C 114.13592 71.192568 128.13378 80.503097 128.13378 80.503097 C 145.36183 67.075352 135.03782 53.584356 123.6369 47.883899 C 112.23598 42.18344 94.042322 42.227913 94.042322 42.227913 z M 181.51709 95.383325 C 187.61267 95.42983 200.05262 96.981018 200.02293 121.35642 C 199.93153 149.22517 183.8085 148.02197 182.00336 148.02197 C 180.13559 148.07387 163.2866 148.46536 163.41328 122.11658 C 163.28661 95.387762 178.93117 95.419645 180.38796 95.387976 C 180.73236 95.384017 181.11071 95.380225 181.51709 95.383325 z " /><path
       id="path3493"
       style="fill:#37b1bc;fill-opacity:1;stroke:none;stroke-width:1;stroke-linecap:square;stroke-linejoin:round;stroke-opacity:1;paint-order:markers stroke fill;stroke-dasharray:none"
       d="M 260.48177 25.483716 C 247.87688 25.56684 232.21197 37.30739 232.22097 51.10179 C 232.24336 84.935723 233.6319 90.167428 234.01259 91.466252 C 235.43479 97.21918 238.52546 123.14114 261.21816 123.25398 C 281.18314 123.35326 285.97426 93.796432 286.8166 88.498991 C 287.95901 81.314425 287.75711 49.84812 287.75711 49.84812 C 287.89146 36.188077 271.14489 25.413396 260.48177 25.483716 z M 258.19044 130.50573 C 258.04217 130.50544 257.89518 130.5067 257.74964 130.50935 C 248.88181 130.50935 235.84865 136.8694 235.84865 153.26145 C 235.84865 168.06829 248.93208 174.27303 259.04827 174.40072 C 268.37012 174.51838 281.77737 169.2948 281.97917 151.73854 C 282.15552 136.39619 267.53183 130.52395 258.19044 130.50573 z " /></g></svg>
