<?xml version="1.0" encoding="UTF-8" standalone="no"?>
<!-- Created with Inkscape (http://www.inkscape.org/) -->

<svg
   width="266.33911mm"
   height="176.44591mm"
   viewBox="0 0 266.33911 176.44591"
   version="1.1"
   id="svg5"
   xml:space="preserve"
   xmlns="http://www.w3.org/2000/svg"
   xmlns:svg="http://www.w3.org/2000/svg"><defs
     id="defs2"><rect
       x="211"
       y="796"
       width="787"
       height="101"
       id="rect1163" /></defs><g
     id="layer1"
     transform="translate(-21.431767,-25.483374)"><g
       aria-label="Consultoria de RH"
       transform="matrix(0.26458333,0,0,0.26458333,1.0583333,-14.022917)"
       id="text1161"
       style="font-size:82.6667px;white-space:pre;shape-inside:url(#rect1163);fill:#ffffff;stroke-width:25.3228;stroke-linecap:round;paint-order:markers stroke fill"><path
         id="path307"
         style="font-family:'FONTSPRING DEMO - Balgin Extra Light';-inkscape-font-specification:'FONTSPRING DEMO - Balgin Extra Light, ';fill:#0f03a1;fill-opacity:1;stroke:none;stroke-width:3.77953;stroke-dasharray:none;stroke-opacity:1"
         d="m 445.93555,746.21095 v 68.92383 h 3.91992 v -68.92383 z m 303.95508,0 v 32.73633 h -0.63671 c -4.19247,-7.43211 -12.21407,-12.03321 -21.60157,-12.03321 -13.85338,0 -24.78906,10.08739 -24.78906,24.59766 0,14.59875 10.93568,24.68555 24.78906,24.68555 9.29635,0 17.31796,-4.60112 21.60157,-12.03321 h 0.63671 v 11.0586 h 3.91993 V 746.21095 Z M 602.2422,749.8379 c -1.54939,0 -2.91602,1.24003 -2.91602,2.74414 0,1.59259 1.36663,2.83008 2.91602,2.83008 1.54938,0 2.82617,-1.23749 2.82617,-2.83008 0,-1.50411 -1.27679,-2.74414 -2.82617,-2.74414 z m -407.12501,2.38867 c -20.23324,0 -34.72461,13.80397 -34.72461,32.47266 0,18.84565 14.40024,31.49805 34.72461,31.49805 8.47609,0 15.8584,-2.3904 21.69141,-6.54883 v -4.51172 c -5.37731,4.42387 -13.21532,7.16602 -21.69141,7.16602 -17.77243,0 -30.5332,-10.96981 -30.5332,-27.60352 0,-16.27981 12.66897,-28.57813 30.4414,-28.57813 6.92669,0 12.85055,1.76853 17.86328,4.86524 l 0.54688,-4.60156 c -5.19502,-2.65432 -11.66509,-4.15821 -18.31836,-4.15821 z m 657.67188,0.97461 v 61.9336 h 4.19336 V 788.6797 l 22.60157,-0.0879 17.3164,26.54297 h 4.64844 L 883.959,788.32618 c 10.02548,-1.50412 17.04296,-8.40521 17.04296,-17.69531 0,-10.52879 -8.83987,-17.42969 -21.05273,-17.42969 z m 60.42579,0 v 61.9336 h 4.19335 v -28.49024 h 44.93165 v 28.49024 h 4.19336 v -61.9336 h -4.19336 v 29.46289 h -44.93165 v -29.46289 z m -56.23243,3.89258 h 22.41992 c 10.02547,0 17.31641,5.39681 17.31641,13.89063 0,8.49382 -7.29094,14.24414 -17.31641,14.24414 h -22.41992 z m -384.70703,0.88477 -14.40039,11.67968 v 1.41407 h 12.30468 v 29.02148 c 0,10.44031 4.92115,16.10352 15.12891,16.10352 6.10642,0 10.02607,-1.8582 10.66406,-2.03516 l -0.82031,-3.45117 c -0.45571,0.26543 -4.01073,1.85742 -9.57031,1.85742 -8.02038,0 -11.48242,-4.15873 -11.48242,-12.91797 v -28.3125 h 21.87304 v -3.44922 h -21.87304 v -9.91015 z m -224.66212,8.93554 c -14.12681,0 -25.42773,10.08739 -25.42773,24.59766 0,14.59875 11.30092,24.68555 25.42773,24.68555 14.12681,0 25.42969,-10.0868 25.42969,-24.68555 0,-14.51027 -11.30288,-24.59766 -25.42969,-24.59766 z m 60.33594,0 c -8.2938,0 -15.40319,4.42515 -19.04883,11.5918 h -0.54687 l -1.36719,-10.61719 h -2.27734 v 47.2461 h 3.91797 v -25.7461 c 0,-11.14814 8.20238,-18.8457 18.41015,-18.8457 10.20776,0 18.41211,7.69756 18.41211,18.8457 v 25.7461 h 3.91797 v -25.83594 c 0,-13.18311 -9.38739,-22.38477 -21.41797,-22.38477 z m 50.85743,0 c -10.20776,0 -17.04493,5.48647 -17.04493,11.94532 0,6.90121 4.37501,11.50174 16.04102,13.89062 10.66346,2.12346 13.67187,5.57437 13.67187,11.14844 0,5.30863 -4.83116,9.02344 -12.57812,9.02344 -7.10897,0 -13.30623,-2.65408 -17.58984,-5.92774 l -1.54883,3.09766 c 4.83046,3.45061 11.66645,6.10547 19.32226,6.10547 9.93434,0 16.31446,-5.31049 16.31446,-12.38867 0,-7.25514 -4.28453,-11.85468 -16.13282,-14.33204 -10.93689,-2.21193 -13.58007,-5.83942 -13.58007,-10.61718 0,-4.6893 5.1951,-8.67188 13.0332,-8.67188 5.833,0 10.29968,1.24003 13.94531,2.74414 v -3.53906 c -3.91906,-1.41563 -8.20279,-2.47852 -13.85351,-2.47852 z m 169.33789,0 c -14.12681,0 -25.42774,10.08739 -25.42774,24.59766 0,14.59875 11.30093,24.68555 25.42774,24.68555 14.1268,0 25.42969,-10.0868 25.42969,-24.68555 0,-14.51027 -11.30289,-24.59766 -25.42969,-24.59766 z m 58.51367,0 c -8.56723,0 -14.3999,4.15795 -17.31641,10.97071 h -0.54687 l -1.27734,-9.9961 h -2.27735 v 47.2461 h 3.91797 v -26.10157 c 0.36457,-11.2366 6.56311,-18.49023 17.5,-18.49023 2.09623,0 2.91676,0.0883 4.64844,0.61914 l 0.54687,-3.7168 c -1.73168,-0.35392 -2.82566,-0.53125 -5.19531,-0.53125 z m 53.86328,0 c -13.85338,0 -24.88086,10.08739 -24.88086,24.59766 0,14.59875 11.02748,24.68555 24.88086,24.68555 9.29636,0 17.31796,-4.60249 21.60157,-12.12305 h 0.54687 v 11.06055 h 3.91797 v -47.2461 h -2.0957 l -1.45899,11.76563 h -0.54687 c -4.10133,-7.87447 -12.39507,-12.74024 -21.96485,-12.74024 z m 150.38282,0 c -14.12681,0 -25.42774,10.08739 -25.42774,24.59766 0,14.59875 10.48137,24.68555 26.33985,24.68555 8.38495,0 16.40526,-2.65483 21.96484,-8.75977 l -2.55273,-2.91992 c -4.73932,5.48559 -11.93857,8.14062 -19.41211,8.14062 -12.94198,0 -21.60096,-7.87629 -22.33008,-19.46679 h 46.8457 v -1.67969 c 0,-14.51027 -11.20979,-24.59766 -25.42773,-24.59766 z m -403.84376,0.97461 v 25.83399 c 0,13.80243 8.93169,22.47461 21.41797,22.47461 8.11152,0 15.2196,-4.33707 18.86524,-11.23828 h 0.45507 l 0.0918,10.17578 h 3.82813 v -47.2461 h -3.91993 v 25.7461 c 0,11.14812 -8.20239,18.93359 -18.41015,18.93359 -10.66346,0 -18.41016,-7.2546 -18.41016,-18.93359 v -25.7461 z m 213.17774,0 v 47.2461 h 4.00976 v -47.2461 z m -352.62501,2.56446 c 11.93943,0 21.50977,8.5833 21.50977,21.05859 0,12.47529 -9.57034,21.14648 -21.50977,21.14648 -11.93943,0 -21.50781,-8.67119 -21.50781,-21.14648 0,-12.47529 9.56838,-21.05859 21.50781,-21.05859 z m 280.53126,0 c 11.93943,0 21.50976,8.5833 21.50976,21.05859 0,12.47529 -9.57033,21.14648 -21.50976,21.14648 -11.93944,0 -21.50781,-8.67119 -21.50781,-21.14648 0,-12.47529 9.56837,-21.05859 21.50781,-21.05859 z m 112.92383,0 c 11.93944,0 21.50976,8.5833 21.50976,21.05859 0,12.47529 -9.57032,21.14648 -21.50976,21.14648 -11.93943,0 -21.50782,-8.67119 -21.50782,-21.14648 0,-12.47529 9.65953,-21.05859 21.50782,-21.05859 z m 87.22265,0 c 11.84829,0 21.41797,8.5833 21.41797,21.05859 0,12.47529 -9.56968,21.14648 -21.41797,21.14648 -11.93942,0 -21.50976,-8.67119 -21.50976,-21.14648 0,-12.47529 9.57034,-21.05859 21.50976,-21.05859 z m 62.61329,0 c 11.39258,0 20.59771,7.78701 21.41797,19.28906 h -42.83594 c 0.91141,-11.50205 10.11652,-19.28906 21.41797,-19.28906 z" /></g><path
       id="path3433"
       style="fill:#0f03a1;fill-opacity:1;stroke:none;stroke-width:1;stroke-linecap:square;stroke-linejoin:round;stroke-dasharray:none;stroke-opacity:1;paint-order:markers stroke fill"
       d="m 94.042322,42.227913 c -51.174148,-0.03249 -72.520985,36.008242 -72.610555,69.508937 0,51.26196 42.231072,64.36596 72.942317,63.98886 40.595576,-0.49847 46.774926,-15.86828 46.774926,-15.86828 0,0 11.85953,15.86867 42.84544,16.03571 31.41417,0.16935 51.03091,-22.71712 52.53427,-50.77985 1.50335,-28.062707 -16.83469,-57.197246 -54.74963,-57.315361 -37.91496,-0.118115 -49.35823,28.375529 -49.35823,28.375529 l -41.63467,0.208773 c -16.369916,4.301279 -5.261695,27.686679 -5.261695,27.686679 l 22.665285,-0.10438 -0.43202,19.80189 c 0,0 -6.1596,3.12184 -17.019113,2.50837 C 80.576428,145.70071 59.74606,139.01922 59.298189,111.43041 58.850319,83.841606 76.512904,72.079306 95.324414,71.635937 114.13592,71.192568 128.13378,80.503097 128.13378,80.503097 145.36183,67.075352 135.03782,53.584356 123.6369,47.883899 112.23598,42.18344 94.042322,42.227913 94.042322,42.227913 Z m 87.474768,53.155412 c 6.09558,0.0465 18.53553,1.597693 18.50584,25.973095 -0.0914,27.86875 -16.21443,26.66555 -18.01957,26.66555 -1.86777,0.0519 -18.71676,0.44339 -18.59008,-25.90539 -0.12667,-26.728818 15.51789,-26.696935 16.97468,-26.728604 0.3444,-0.004 0.72275,-0.0078 1.12913,-0.0047 z" /><path
       id="path3493"
       style="fill:#37b1bc;fill-opacity:1;stroke:none;stroke-width:1;stroke-linecap:square;stroke-linejoin:round;stroke-dasharray:none;stroke-opacity:1;paint-order:markers stroke fill"
       d="m 260.48177,25.483716 c -12.60489,0.08312 -28.2698,11.823674 -28.2608,25.618074 0.0224,33.833933 1.41093,39.065638 1.79162,40.364462 1.4222,5.752928 4.51287,31.674888 27.20557,31.787728 19.96498,0.0993 24.7561,-29.457548 25.59844,-34.754989 1.14241,-7.184566 0.94051,-38.650871 0.94051,-38.650871 0.13435,-13.660043 -16.61222,-24.434724 -27.27534,-24.364404 z m -2.29133,105.022014 c -0.14827,-2.9e-4 -0.29526,9.7e-4 -0.4408,0.004 -8.86783,0 -21.90099,6.36005 -21.90099,22.7521 0,14.80684 13.08343,21.01158 23.19962,21.13927 9.32185,0.11766 22.7291,-5.10592 22.9309,-22.66218 0.17635,-15.34235 -14.44734,-21.21459 -23.78873,-21.23281 z" /></g></svg>
